<?xml version="1.0" encoding="UTF-8" standalone="no"?>
<!-- Created with Inkscape (http://www.inkscape.org/) -->

<svg
   xmlns:dc="http://purl.org/dc/elements/1.1/"
   xmlns:cc="http://creativecommons.org/ns#"
   xmlns:rdf="http://www.w3.org/1999/02/22-rdf-syntax-ns#"
   xmlns:svg="http://www.w3.org/2000/svg"
   xmlns="http://www.w3.org/2000/svg"
   xmlns:sodipodi="http://sodipodi.sourceforge.net/DTD/sodipodi-0.dtd"
   xmlns:inkscape="http://www.inkscape.org/namespaces/inkscape"
   version="1.1"
   id="svg2"
   xml:space="preserve"
   width="165.052"
   height="165.04933"
   viewBox="0 0 165.052 165.04933"
   sodipodi:docname="burger.svg"
   inkscape:version="0.92.4 (5da689c313, 2019-01-14)"><metadata
     id="metadata8"><rdf:RDF><cc:Work
         rdf:about=""><dc:format>image/svg+xml</dc:format><dc:type
           rdf:resource="http://purl.org/dc/dcmitype/StillImage" /><dc:title></dc:title></cc:Work></rdf:RDF></metadata><defs
     id="defs6"><clipPath
       clipPathUnits="userSpaceOnUse"
       id="clipPath18"><path
         d="M 0,141.729 H 255.12 V 0 H 0 Z"
         id="path16"
         inkscape:connector-curvature="0" /></clipPath></defs><sodipodi:namedview
     pagecolor="#ffffff"
     bordercolor="#666666"
     borderopacity="1"
     objecttolerance="10"
     gridtolerance="10"
     guidetolerance="10"
     inkscape:pageopacity="0"
     inkscape:pageshadow="2"
     inkscape:window-width="1920"
     inkscape:window-height="1058"
     id="namedview4"
     showgrid="false"
     inkscape:zoom="1.0465663"
     inkscape:cx="14.147362"
     inkscape:cy="94.486"
     inkscape:window-x="-8"
     inkscape:window-y="-8"
     inkscape:window-maximized="1"
     inkscape:current-layer="g10"
     fit-margin-top="0"
     fit-margin-left="0"
     fit-margin-right="0"
     fit-margin-bottom="0" /><g
     id="g10"
     inkscape:groupmode="layer"
     inkscape:label="BURGER"
     transform="matrix(1.3333333,0,0,-1.3333333,0,165.04933)"><g
       id="g12"
       style="fill:#ffffff;fill-opacity:1;stroke:none;stroke-opacity:1"
       transform="translate(-63.8008,-9.0026001)"><g
         id="g14"
         clip-path="url(#clipPath18)"
         style="fill:#ffffff;fill-opacity:1;stroke:none;stroke-opacity:1"><g
           id="g20"
           transform="translate(125.6958,132.7896)"
           style="fill:#ffffff;fill-opacity:1;stroke:none;stroke-opacity:1"><path
             d="m 0,0 c -34.127,0 -61.895,-27.764 -61.895,-61.894 0,-34.129 27.768,-61.893 61.895,-61.893 34.128,0 61.894,27.764 61.894,61.893 C 61.894,-27.764 34.128,0 0,0 m 0,-6.291 c 30.709,0 55.602,-24.895 55.602,-55.603 0,-30.705 -24.893,-55.6 -55.602,-55.6 -30.708,0 -55.603,24.895 -55.603,55.6 0,30.708 24.895,55.603 55.603,55.603"
             style="fill:#ffffff;fill-opacity:1;fill-rule:nonzero;stroke:none;stroke-opacity:1"
             id="path22"
             inkscape:connector-curvature="0" /></g><g
           id="g24"
           transform="translate(164.7651,67.6865)"
           style="fill:#ffffff;fill-opacity:1;stroke:none;stroke-opacity:1"><path
             d="m 0,0 c -3.547,-1.73 -4.772,-2.088 -5.521,-2.088 -2.339,0 -4.434,1.442 -6.454,2.828 -1.631,1.127 -3.324,2.292 -4.708,2.292 -1.383,0 -3.073,-1.165 -4.705,-2.288 -2.023,-1.39 -4.118,-2.832 -6.457,-2.832 -2.336,0 -4.43,1.442 -6.45,2.828 -1.636,1.127 -3.324,2.292 -4.708,2.292 -1.382,0 -3.072,-1.165 -4.709,-2.288 -2.019,-1.39 -4.114,-2.832 -6.449,-2.832 -2.341,0 -4.435,1.442 -6.454,2.832 -1.636,1.123 -3.324,2.288 -4.708,2.288 -1.382,0 -3.074,-1.165 -4.709,-2.288 -2.027,-1.39 -4.116,-2.832 -6.453,-2.832 -1.068,0 -2.682,0.701 -5.754,2.498 -0.738,0.428 -0.982,1.373 -0.553,2.108 0.431,0.732 1.369,0.981 2.106,0.549 3.095,-1.809 3.986,-2.055 4.223,-2.075 1.358,0.004 3.05,1.164 4.683,2.29 2.024,1.388 4.118,2.828 6.457,2.828 2.339,0 4.429,-1.44 6.453,-2.828 1.635,-1.126 3.325,-2.286 4.709,-2.286 1.38,0 3.072,1.16 4.704,2.286 2.021,1.388 4.118,2.828 6.454,2.828 2.339,0 4.434,-1.44 6.453,-2.828 1.633,-1.126 3.325,-2.286 4.705,-2.286 1.384,0 3.076,1.16 4.708,2.286 2.024,1.388 4.115,2.828 6.454,2.828 2.339,0 4.434,-1.44 6.454,-2.828 1.635,-1.126 3.325,-2.286 4.708,-2.286 0.131,0.016 0.952,0.199 4.167,1.773 0.767,0.37 1.685,0.054 2.061,-0.706 C 1.079,1.295 0.76,0.373 0,0 m -5.799,-9.334 h -66.545 c -1.499,0 -2.712,1.211 -2.712,2.711 0,1.494 1.213,2.709 2.712,2.709 h 66.545 c 1.5,0 2.711,-1.215 2.711,-2.709 0,-1.5 -1.211,-2.711 -2.711,-2.711 m 0,-7.318 h -66.545 c -1.499,0 -2.712,1.211 -2.712,2.707 0,1.498 1.213,2.713 2.712,2.713 h 66.545 c 1.5,0 2.711,-1.215 2.711,-2.713 0,-1.496 -1.211,-2.707 -2.711,-2.707 M -31.12,-27.686 h -15.901 c -17.913,0.002 -25.323,-1.058 -25.323,9.067 0,0 66.545,0.057 66.545,0 0,-10.045 -7.413,-9.065 -25.321,-9.067 m -40.425,39.734 h 13.851 c 0.999,0 1.805,-0.809 1.805,-1.806 0,-0.996 -0.806,-1.804 -1.805,-1.804 h -13.851 c -0.997,0 -1.805,0.808 -1.805,1.804 0,0.997 0.808,1.806 1.805,1.806 m 42.215,-1.806 c 0,-0.996 -0.809,-1.804 -1.806,-1.804 h -15.652 c -1,0 -1.805,0.808 -1.805,1.804 0,0.997 0.805,1.806 1.805,1.806 h 15.652 c 0.997,0 1.806,-0.809 1.806,-1.806 m -9.093,24.111 h 0.112 c 17.909,0 32.512,-5.603 32.512,-20.45 0,0 -66.545,-0.059 -66.545,0 0,14.847 16.015,20.45 33.921,20.45 M -4.937,10.242 c 0,-0.996 -0.806,-1.804 -1.806,-1.804 H -20.59 c -0.997,0 -1.806,0.808 -1.806,1.804 0,0.997 0.809,1.806 1.806,1.806 h 13.847 c 1,0 1.806,-0.809 1.806,-1.806 M -39.07,56.483 c -29.418,0 -53.272,-23.854 -53.272,-53.274 0,-29.422 23.854,-53.273 53.272,-53.273 29.424,0 53.274,23.851 53.274,53.273 0,29.42 -23.85,53.274 -53.274,53.274"
             style="fill:#ffffff;fill-opacity:1;fill-rule:nonzero;stroke:none;stroke-opacity:1"
             id="path26"
             inkscape:connector-curvature="0" /></g><g
           id="g28"
           transform="translate(102.2192,94.4521)"
           style="fill:#ffffff;fill-opacity:1;stroke:none;stroke-opacity:1"><path
             d="m 0,0 c -0.383,0 -0.693,-0.31 -0.693,-0.693 0,-0.382 0.31,-0.694 0.693,-0.694 0.38,0 0.692,0.312 0.692,0.694 C 0.692,-0.31 0.38,0 0,0"
             style="fill:#ffffff;fill-opacity:1;fill-rule:nonzero;stroke:none;stroke-opacity:1"
             id="path30"
             inkscape:connector-curvature="0" /></g><g
           id="g32"
           transform="translate(105.8296,94.4521)"
           style="fill:#ffffff;fill-opacity:1;stroke:none;stroke-opacity:1"><path
             d="m 0,0 c -0.382,0 -0.693,-0.31 -0.693,-0.693 0,-0.382 0.311,-0.694 0.693,-0.694 0.388,0 0.692,0.312 0.692,0.694 C 0.692,-0.31 0.388,0 0,0"
             style="fill:#ffffff;fill-opacity:1;fill-rule:nonzero;stroke:none;stroke-opacity:1"
             id="path34"
             inkscape:connector-curvature="0" /></g><g
           id="g36"
           transform="translate(109.4438,94.4521)"
           style="fill:#ffffff;fill-opacity:1;stroke:none;stroke-opacity:1"><path
             d="m 0,0 c -0.38,0 -0.693,-0.31 -0.693,-0.693 0,-0.382 0.313,-0.694 0.693,-0.694 0.384,0 0.692,0.312 0.692,0.694 C 0.692,-0.31 0.384,0 0,0"
             style="fill:#ffffff;fill-opacity:1;fill-rule:nonzero;stroke:none;stroke-opacity:1"
             id="path38"
             inkscape:connector-curvature="0" /></g><g
           id="g40"
           transform="translate(113.0542,93.0664)"
           style="fill:#ffffff;fill-opacity:1;stroke:none;stroke-opacity:1"><path
             d="M 0,0 C 0.384,0 0.692,0.312 0.692,0.691 0.692,1.076 0.384,1.387 0,1.387 -0.38,1.387 -0.691,1.076 -0.691,0.691 -0.691,0.312 -0.38,0 0,0"
             style="fill:#ffffff;fill-opacity:1;fill-rule:nonzero;stroke:none;stroke-opacity:1"
             id="path42"
             inkscape:connector-curvature="0" /></g><g
           id="g44"
           transform="translate(116.6685,93.0664)"
           style="fill:#ffffff;fill-opacity:1;stroke:none;stroke-opacity:1"><path
             d="M 0,0 C 0.38,0 0.692,0.312 0.692,0.691 0.692,1.076 0.38,1.387 0,1.387 -0.386,1.387 -0.695,1.076 -0.695,0.691 -0.695,0.312 -0.386,0 0,0"
             style="fill:#ffffff;fill-opacity:1;fill-rule:nonzero;stroke:none;stroke-opacity:1"
             id="path46"
             inkscape:connector-curvature="0" /></g><g
           id="g48"
           transform="translate(120.2808,93.0664)"
           style="fill:#ffffff;fill-opacity:1;stroke:none;stroke-opacity:1"><path
             d="M 0,0 C 0.378,0 0.69,0.312 0.69,0.691 0.69,1.076 0.378,1.387 0,1.387 -0.388,1.387 -0.694,1.076 -0.694,0.691 -0.694,0.312 -0.388,0 0,0"
             style="fill:#ffffff;fill-opacity:1;fill-rule:nonzero;stroke:none;stroke-opacity:1"
             id="path50"
             inkscape:connector-curvature="0" /></g><g
           id="g52"
           transform="translate(123.8892,93.0664)"
           style="fill:#ffffff;fill-opacity:1;stroke:none;stroke-opacity:1"><path
             d="M 0,0 C 0.384,0 0.697,0.312 0.697,0.691 0.697,1.076 0.384,1.387 0,1.387 -0.384,1.387 -0.692,1.076 -0.692,0.691 -0.692,0.312 -0.384,0 0,0"
             style="fill:#ffffff;fill-opacity:1;fill-rule:nonzero;stroke:none;stroke-opacity:1"
             id="path54"
             inkscape:connector-curvature="0" /></g><g
           id="g56"
           transform="translate(127.5034,93.0664)"
           style="fill:#ffffff;fill-opacity:1;stroke:none;stroke-opacity:1"><path
             d="M 0,0 C 0.384,0 0.691,0.312 0.691,0.691 0.691,1.076 0.384,1.387 0,1.387 -0.388,1.387 -0.692,1.076 -0.692,0.691 -0.692,0.312 -0.388,0 0,0"
             style="fill:#ffffff;fill-opacity:1;fill-rule:nonzero;stroke:none;stroke-opacity:1"
             id="path58"
             inkscape:connector-curvature="0" /></g><g
           id="g60"
           transform="translate(131.1177,93.0664)"
           style="fill:#ffffff;fill-opacity:1;stroke:none;stroke-opacity:1"><path
             d="M 0,0 C 0.376,0 0.687,0.312 0.687,0.691 0.687,1.076 0.376,1.387 0,1.387 -0.388,1.387 -0.696,1.076 -0.696,0.691 -0.696,0.312 -0.388,0 0,0"
             style="fill:#ffffff;fill-opacity:1;fill-rule:nonzero;stroke:none;stroke-opacity:1"
             id="path62"
             inkscape:connector-curvature="0" /></g><g
           id="g64"
           transform="translate(134.728,93.0664)"
           style="fill:#ffffff;fill-opacity:1;stroke:none;stroke-opacity:1"><path
             d="M 0,0 C 0.38,0 0.687,0.312 0.687,0.691 0.687,1.076 0.38,1.387 0,1.387 -0.384,1.387 -0.696,1.076 -0.696,0.691 -0.696,0.312 -0.384,0 0,0"
             style="fill:#ffffff;fill-opacity:1;fill-rule:nonzero;stroke:none;stroke-opacity:1"
             id="path66"
             inkscape:connector-curvature="0" /></g><g
           id="g68"
           transform="translate(138.3384,93.0664)"
           style="fill:#ffffff;fill-opacity:1;stroke:none;stroke-opacity:1"><path
             d="M 0,0 C 0.384,0 0.687,0.312 0.687,0.691 0.687,1.076 0.384,1.387 0,1.387 -0.384,1.387 -0.696,1.076 -0.696,0.691 -0.696,0.312 -0.384,0 0,0"
             style="fill:#ffffff;fill-opacity:1;fill-rule:nonzero;stroke:none;stroke-opacity:1"
             id="path70"
             inkscape:connector-curvature="0" /></g><g
           id="g72"
           transform="translate(141.9487,93.0664)"
           style="fill:#ffffff;fill-opacity:1;stroke:none;stroke-opacity:1"><path
             d="M 0,0 C 0.384,0 0.691,0.312 0.691,0.691 0.691,1.076 0.384,1.387 0,1.387 -0.384,1.387 -0.692,1.076 -0.692,0.691 -0.692,0.312 -0.384,0 0,0"
             style="fill:#ffffff;fill-opacity:1;fill-rule:nonzero;stroke:none;stroke-opacity:1"
             id="path74"
             inkscape:connector-curvature="0" /></g><g
           id="g76"
           transform="translate(145.5591,93.0664)"
           style="fill:#ffffff;fill-opacity:1;stroke:none;stroke-opacity:1"><path
             d="M 0,0 C 0.384,0 0.695,0.312 0.695,0.691 0.695,1.076 0.384,1.387 0,1.387 -0.38,1.387 -0.692,1.076 -0.692,0.691 -0.692,0.312 -0.38,0 0,0"
             style="fill:#ffffff;fill-opacity:1;fill-rule:nonzero;stroke:none;stroke-opacity:1"
             id="path78"
             inkscape:connector-curvature="0" /></g><g
           id="g80"
           transform="translate(149.1694,93.0664)"
           style="fill:#ffffff;fill-opacity:1;stroke:none;stroke-opacity:1"><path
             d="M 0,0 C 0.384,0 0.695,0.312 0.695,0.691 0.695,1.076 0.384,1.387 0,1.387 -0.38,1.387 -0.692,1.076 -0.692,0.691 -0.692,0.312 -0.38,0 0,0"
             style="fill:#ffffff;fill-opacity:1;fill-rule:nonzero;stroke:none;stroke-opacity:1"
             id="path82"
             inkscape:connector-curvature="0" /></g><g
           id="g84"
           transform="translate(114.8599,96.6792)"
           style="fill:#ffffff;fill-opacity:1;stroke:none;stroke-opacity:1"><path
             d="M 0,0 C 0.387,0 0.691,0.311 0.691,0.691 0.691,1.075 0.387,1.384 0,1.384 -0.38,1.384 -0.692,1.075 -0.692,0.691 -0.692,0.311 -0.38,0 0,0"
             style="fill:#ffffff;fill-opacity:1;fill-rule:nonzero;stroke:none;stroke-opacity:1"
             id="path86"
             inkscape:connector-curvature="0" /></g><g
           id="g88"
           transform="translate(111.2495,96.6792)"
           style="fill:#ffffff;fill-opacity:1;stroke:none;stroke-opacity:1"><path
             d="M 0,0 C 0.383,0 0.691,0.311 0.691,0.691 0.691,1.075 0.383,1.384 0,1.384 -0.388,1.384 -0.694,1.075 -0.694,0.691 -0.694,0.311 -0.388,0 0,0"
             style="fill:#ffffff;fill-opacity:1;fill-rule:nonzero;stroke:none;stroke-opacity:1"
             id="path90"
             inkscape:connector-curvature="0" /></g><g
           id="g92"
           transform="translate(118.4702,96.6792)"
           style="fill:#ffffff;fill-opacity:1;stroke:none;stroke-opacity:1"><path
             d="M 0,0 C 0.387,0 0.691,0.311 0.691,0.691 0.691,1.075 0.387,1.384 0,1.384 -0.376,1.384 -0.69,1.075 -0.69,0.691 -0.69,0.311 -0.376,0 0,0"
             style="fill:#ffffff;fill-opacity:1;fill-rule:nonzero;stroke:none;stroke-opacity:1"
             id="path94"
             inkscape:connector-curvature="0" /></g><g
           id="g96"
           transform="translate(122.0845,96.6792)"
           style="fill:#ffffff;fill-opacity:1;stroke:none;stroke-opacity:1"><path
             d="M 0,0 C 0.383,0 0.691,0.311 0.691,0.691 0.691,1.075 0.383,1.384 0,1.384 -0.38,1.384 -0.692,1.075 -0.692,0.691 -0.692,0.311 -0.38,0 0,0"
             style="fill:#ffffff;fill-opacity:1;fill-rule:nonzero;stroke:none;stroke-opacity:1"
             id="path98"
             inkscape:connector-curvature="0" /></g><g
           id="g100"
           transform="translate(125.6958,96.6792)"
           style="fill:#ffffff;fill-opacity:1;stroke:none;stroke-opacity:1"><path
             d="M 0,0 C 0.382,0 0.695,0.311 0.695,0.691 0.695,1.075 0.382,1.384 0,1.384 -0.383,1.384 -0.689,1.075 -0.689,0.691 -0.689,0.311 -0.383,0 0,0"
             style="fill:#ffffff;fill-opacity:1;fill-rule:nonzero;stroke:none;stroke-opacity:1"
             id="path102"
             inkscape:connector-curvature="0" /></g><g
           id="g104"
           transform="translate(129.312,96.6792)"
           style="fill:#ffffff;fill-opacity:1;stroke:none;stroke-opacity:1"><path
             d="M 0,0 C 0.38,0 0.685,0.311 0.685,0.691 0.685,1.075 0.38,1.384 0,1.384 -0.387,1.384 -0.699,1.075 -0.699,0.691 -0.699,0.311 -0.387,0 0,0"
             style="fill:#ffffff;fill-opacity:1;fill-rule:nonzero;stroke:none;stroke-opacity:1"
             id="path106"
             inkscape:connector-curvature="0" /></g><g
           id="g108"
           transform="translate(132.9224,96.6792)"
           style="fill:#ffffff;fill-opacity:1;stroke:none;stroke-opacity:1"><path
             d="M 0,0 C 0.38,0 0.688,0.311 0.688,0.691 0.688,1.075 0.38,1.384 0,1.384 -0.384,1.384 -0.695,1.075 -0.695,0.691 -0.695,0.311 -0.384,0 0,0"
             style="fill:#ffffff;fill-opacity:1;fill-rule:nonzero;stroke:none;stroke-opacity:1"
             id="path110"
             inkscape:connector-curvature="0" /></g><g
           id="g112"
           transform="translate(136.5288,96.6792)"
           style="fill:#ffffff;fill-opacity:1;stroke:none;stroke-opacity:1"><path
             d="M 0,0 C 0.388,0 0.692,0.311 0.692,0.691 0.692,1.075 0.388,1.384 0,1.384 -0.38,1.384 -0.691,1.075 -0.691,0.691 -0.691,0.311 -0.38,0 0,0"
             style="fill:#ffffff;fill-opacity:1;fill-rule:nonzero;stroke:none;stroke-opacity:1"
             id="path114"
             inkscape:connector-curvature="0" /></g><g
           id="g116"
           transform="translate(140.1431,96.6792)"
           style="fill:#ffffff;fill-opacity:1;stroke:none;stroke-opacity:1"><path
             d="M 0,0 C 0.384,0 0.692,0.311 0.692,0.691 0.692,1.075 0.384,1.384 0,1.384 -0.384,1.384 -0.695,1.075 -0.695,0.691 -0.695,0.311 -0.384,0 0,0"
             style="fill:#ffffff;fill-opacity:1;fill-rule:nonzero;stroke:none;stroke-opacity:1"
             id="path118"
             inkscape:connector-curvature="0" /></g><g
           id="g120"
           transform="translate(100.4146,90.8418)"
           style="fill:#ffffff;fill-opacity:1;stroke:none;stroke-opacity:1"><path
             d="m 0,0 c -0.384,0 -0.694,-0.31 -0.694,-0.695 0,-0.384 0.31,-0.694 0.694,-0.694 0.38,0 0.691,0.31 0.691,0.694 C 0.691,-0.31 0.38,0 0,0"
             style="fill:#ffffff;fill-opacity:1;fill-rule:nonzero;stroke:none;stroke-opacity:1"
             id="path122"
             inkscape:connector-curvature="0" /></g><g
           id="g124"
           transform="translate(96.7983,90.8418)"
           style="fill:#ffffff;fill-opacity:1;stroke:none;stroke-opacity:1"><path
             d="m 0,0 c -0.382,0 -0.69,-0.31 -0.69,-0.695 0,-0.384 0.308,-0.694 0.69,-0.694 0.386,0 0.697,0.31 0.697,0.694 C 0.697,-0.31 0.386,0 0,0"
             style="fill:#ffffff;fill-opacity:1;fill-rule:nonzero;stroke:none;stroke-opacity:1"
             id="path126"
             inkscape:connector-curvature="0" /></g><g
           id="g128"
           transform="translate(104.0249,90.8418)"
           style="fill:#ffffff;fill-opacity:1;stroke:none;stroke-opacity:1"><path
             d="m 0,0 c -0.382,0 -0.69,-0.31 -0.69,-0.695 0,-0.384 0.308,-0.694 0.69,-0.694 0.38,0 0.691,0.31 0.691,0.694 C 0.691,-0.31 0.38,0 0,0"
             style="fill:#ffffff;fill-opacity:1;fill-rule:nonzero;stroke:none;stroke-opacity:1"
             id="path130"
             inkscape:connector-curvature="0" /></g><g
           id="g132"
           transform="translate(107.6392,90.8418)"
           style="fill:#ffffff;fill-opacity:1;stroke:none;stroke-opacity:1"><path
             d="m 0,0 c -0.388,0 -0.694,-0.31 -0.694,-0.695 0,-0.384 0.306,-0.694 0.694,-0.694 0.38,0 0.691,0.31 0.691,0.694 C 0.691,-0.31 0.38,0 0,0"
             style="fill:#ffffff;fill-opacity:1;fill-rule:nonzero;stroke:none;stroke-opacity:1"
             id="path134"
             inkscape:connector-curvature="0" /></g><g
           id="g136"
           transform="translate(111.2495,89.4541)"
           style="fill:#ffffff;fill-opacity:1;stroke:none;stroke-opacity:1"><path
             d="M 0,0 C 0.383,0 0.691,0.31 0.691,0.691 0.691,1.078 0.383,1.389 0,1.389 -0.388,1.389 -0.694,1.078 -0.694,0.691 -0.694,0.31 -0.388,0 0,0"
             style="fill:#ffffff;fill-opacity:1;fill-rule:nonzero;stroke:none;stroke-opacity:1"
             id="path138"
             inkscape:connector-curvature="0" /></g><g
           id="g140"
           transform="translate(114.8599,89.4541)"
           style="fill:#ffffff;fill-opacity:1;stroke:none;stroke-opacity:1"><path
             d="M 0,0 C 0.387,0 0.691,0.31 0.691,0.691 0.691,1.078 0.387,1.389 0,1.389 -0.38,1.389 -0.692,1.078 -0.692,0.691 -0.692,0.31 -0.38,0 0,0"
             style="fill:#ffffff;fill-opacity:1;fill-rule:nonzero;stroke:none;stroke-opacity:1"
             id="path142"
             inkscape:connector-curvature="0" /></g><g
           id="g144"
           transform="translate(118.4702,89.4541)"
           style="fill:#ffffff;fill-opacity:1;stroke:none;stroke-opacity:1"><path
             d="M 0,0 C 0.387,0 0.691,0.31 0.691,0.691 0.691,1.078 0.387,1.389 0,1.389 -0.376,1.389 -0.69,1.078 -0.69,0.691 -0.69,0.31 -0.376,0 0,0"
             style="fill:#ffffff;fill-opacity:1;fill-rule:nonzero;stroke:none;stroke-opacity:1"
             id="path146"
             inkscape:connector-curvature="0" /></g><g
           id="g148"
           transform="translate(122.0845,89.4541)"
           style="fill:#ffffff;fill-opacity:1;stroke:none;stroke-opacity:1"><path
             d="M 0,0 C 0.383,0 0.691,0.31 0.691,0.691 0.691,1.078 0.383,1.389 0,1.389 -0.38,1.389 -0.692,1.078 -0.692,0.691 -0.692,0.31 -0.38,0 0,0"
             style="fill:#ffffff;fill-opacity:1;fill-rule:nonzero;stroke:none;stroke-opacity:1"
             id="path150"
             inkscape:connector-curvature="0" /></g><g
           id="g152"
           transform="translate(125.6958,89.4541)"
           style="fill:#ffffff;fill-opacity:1;stroke:none;stroke-opacity:1"><path
             d="M 0,0 C 0.382,0 0.695,0.31 0.695,0.691 0.695,1.078 0.382,1.389 0,1.389 -0.383,1.389 -0.689,1.078 -0.689,0.691 -0.689,0.31 -0.383,0 0,0"
             style="fill:#ffffff;fill-opacity:1;fill-rule:nonzero;stroke:none;stroke-opacity:1"
             id="path154"
             inkscape:connector-curvature="0" /></g><g
           id="g156"
           transform="translate(129.312,89.4541)"
           style="fill:#ffffff;fill-opacity:1;stroke:none;stroke-opacity:1"><path
             d="M 0,0 C 0.38,0 0.685,0.31 0.685,0.691 0.685,1.078 0.38,1.389 0,1.389 -0.387,1.389 -0.699,1.078 -0.699,0.691 -0.699,0.31 -0.387,0 0,0"
             style="fill:#ffffff;fill-opacity:1;fill-rule:nonzero;stroke:none;stroke-opacity:1"
             id="path158"
             inkscape:connector-curvature="0" /></g><g
           id="g160"
           transform="translate(132.9224,89.4541)"
           style="fill:#ffffff;fill-opacity:1;stroke:none;stroke-opacity:1"><path
             d="M 0,0 C 0.38,0 0.688,0.31 0.688,0.691 0.688,1.078 0.38,1.389 0,1.389 -0.384,1.389 -0.695,1.078 -0.695,0.691 -0.695,0.31 -0.384,0 0,0"
             style="fill:#ffffff;fill-opacity:1;fill-rule:nonzero;stroke:none;stroke-opacity:1"
             id="path162"
             inkscape:connector-curvature="0" /></g><g
           id="g164"
           transform="translate(136.5288,89.4541)"
           style="fill:#ffffff;fill-opacity:1;stroke:none;stroke-opacity:1"><path
             d="M 0,0 C 0.388,0 0.692,0.31 0.692,0.691 0.692,1.078 0.388,1.389 0,1.389 -0.38,1.389 -0.691,1.078 -0.691,0.691 -0.691,0.31 -0.38,0 0,0"
             style="fill:#ffffff;fill-opacity:1;fill-rule:nonzero;stroke:none;stroke-opacity:1"
             id="path166"
             inkscape:connector-curvature="0" /></g><g
           id="g168"
           transform="translate(140.1431,89.4541)"
           style="fill:#ffffff;fill-opacity:1;stroke:none;stroke-opacity:1"><path
             d="M 0,0 C 0.384,0 0.692,0.31 0.692,0.691 0.692,1.078 0.384,1.389 0,1.389 -0.384,1.389 -0.695,1.078 -0.695,0.691 -0.695,0.31 -0.384,0 0,0"
             style="fill:#ffffff;fill-opacity:1;fill-rule:nonzero;stroke:none;stroke-opacity:1"
             id="path170"
             inkscape:connector-curvature="0" /></g><g
           id="g172"
           transform="translate(143.7534,89.4541)"
           style="fill:#ffffff;fill-opacity:1;stroke:none;stroke-opacity:1"><path
             d="M 0,0 C 0.384,0 0.692,0.31 0.692,0.691 0.692,1.078 0.384,1.389 0,1.389 -0.38,1.389 -0.695,1.078 -0.695,0.691 -0.695,0.31 -0.38,0 0,0"
             style="fill:#ffffff;fill-opacity:1;fill-rule:nonzero;stroke:none;stroke-opacity:1"
             id="path174"
             inkscape:connector-curvature="0" /></g><g
           id="g176"
           transform="translate(147.3638,89.4541)"
           style="fill:#ffffff;fill-opacity:1;stroke:none;stroke-opacity:1"><path
             d="M 0,0 C 0.384,0 0.696,0.31 0.696,0.691 0.696,1.078 0.384,1.389 0,1.389 -0.38,1.389 -0.691,1.078 -0.691,0.691 -0.691,0.31 -0.38,0 0,0"
             style="fill:#ffffff;fill-opacity:1;fill-rule:nonzero;stroke:none;stroke-opacity:1"
             id="path178"
             inkscape:connector-curvature="0" /></g><g
           id="g180"
           transform="translate(150.9741,89.4541)"
           style="fill:#ffffff;fill-opacity:1;stroke:none;stroke-opacity:1"><path
             d="M 0,0 C 0.388,0 0.7,0.31 0.7,0.691 0.7,1.078 0.388,1.389 0,1.389 -0.38,1.389 -0.687,1.078 -0.687,0.691 -0.687,0.31 -0.38,0 0,0"
             style="fill:#ffffff;fill-opacity:1;fill-rule:nonzero;stroke:none;stroke-opacity:1"
             id="path182"
             inkscape:connector-curvature="0" /></g><g
           id="g184"
           transform="translate(154.5923,89.4541)"
           style="fill:#ffffff;fill-opacity:1;stroke:none;stroke-opacity:1"><path
             d="M 0,0 C 0.38,0 0.692,0.31 0.692,0.691 0.692,1.078 0.38,1.389 0,1.389 -0.384,1.389 -0.696,1.078 -0.696,0.691 -0.696,0.31 -0.384,0 0,0"
             style="fill:#ffffff;fill-opacity:1;fill-rule:nonzero;stroke:none;stroke-opacity:1"
             id="path186"
             inkscape:connector-curvature="0" /></g></g></g></g></svg>